<mxfile host="app.diagrams.net" modified="2024-07-01T09:49:16.155Z" agent="Mozilla/5.0 (Windows NT 10.0; Win64; x64; rv:127.0) Gecko/20100101 Firefox/127.0" etag="rnZU1pISc30Ahx1s-zlU" version="24.6.1" type="github" pages="3">
  <diagram name="Old System" id="6ZGu2FWOckZ5XsNsIwNk">
    <mxGraphModel dx="1434" dy="696" grid="1" gridSize="10" guides="1" tooltips="1" connect="1" arrows="1" fold="1" page="1" pageScale="1" pageWidth="850" pageHeight="1100" math="0" shadow="0">
      <root>
        <mxCell id="0" />
        <mxCell id="1" parent="0" />
        <mxCell id="JP9ZpFZdsZ-qgg0Ub5O5-6" style="edgeStyle=orthogonalEdgeStyle;rounded=0;orthogonalLoop=1;jettySize=auto;html=1;" edge="1" parent="1" source="JP9ZpFZdsZ-qgg0Ub5O5-1" target="JP9ZpFZdsZ-qgg0Ub5O5-5">
          <mxGeometry relative="1" as="geometry" />
        </mxCell>
        <mxCell id="JP9ZpFZdsZ-qgg0Ub5O5-1" value="" style="rounded=1;whiteSpace=wrap;html=1;" vertex="1" parent="1">
          <mxGeometry x="110" y="140" width="220" height="170" as="geometry" />
        </mxCell>
        <mxCell id="JP9ZpFZdsZ-qgg0Ub5O5-2" value="" style="endArrow=classic;html=1;rounded=0;entryX=1;entryY=0.5;entryDx=0;entryDy=0;" edge="1" parent="1" target="JP9ZpFZdsZ-qgg0Ub5O5-1">
          <mxGeometry width="50" height="50" relative="1" as="geometry">
            <mxPoint x="540" y="225" as="sourcePoint" />
            <mxPoint x="570" y="300" as="targetPoint" />
          </mxGeometry>
        </mxCell>
        <mxCell id="JP9ZpFZdsZ-qgg0Ub5O5-3" value="33 K" style="text;html=1;align=center;verticalAlign=middle;whiteSpace=wrap;rounded=0;" vertex="1" parent="1">
          <mxGeometry x="550" y="150" width="60" height="30" as="geometry" />
        </mxCell>
        <mxCell id="JP9ZpFZdsZ-qgg0Ub5O5-4" value="Actor" style="shape=umlActor;verticalLabelPosition=bottom;verticalAlign=top;html=1;outlineConnect=0;" vertex="1" parent="1">
          <mxGeometry x="565" y="190" width="30" height="60" as="geometry" />
        </mxCell>
        <mxCell id="JP9ZpFZdsZ-qgg0Ub5O5-5" value="" style="shape=cylinder3;whiteSpace=wrap;html=1;boundedLbl=1;backgroundOutline=1;size=15;" vertex="1" parent="1">
          <mxGeometry x="190" y="390" width="60" height="80" as="geometry" />
        </mxCell>
      </root>
    </mxGraphModel>
  </diagram>
  <diagram id="-l28mSJB_E8L8fre8FZg" name="Page-2">
    <mxGraphModel dx="1990" dy="1160" grid="1" gridSize="10" guides="1" tooltips="1" connect="1" arrows="1" fold="1" page="1" pageScale="1" pageWidth="850" pageHeight="1100" math="0" shadow="0">
      <root>
        <mxCell id="0" />
        <mxCell id="1" parent="0" />
        <mxCell id="5bwVn5MdxZ3R_6Nli64p-2" value="Staff" style="ellipse;whiteSpace=wrap;html=1;" vertex="1" parent="1">
          <mxGeometry x="105" y="280" width="120" height="80" as="geometry" />
        </mxCell>
        <mxCell id="5bwVn5MdxZ3R_6Nli64p-3" value="Orchestration" style="ellipse;whiteSpace=wrap;html=1;" vertex="1" parent="1">
          <mxGeometry x="340" y="280" width="120" height="80" as="geometry" />
        </mxCell>
        <mxCell id="dq1oUH23QymGpSojinx8-15" style="edgeStyle=orthogonalEdgeStyle;rounded=0;orthogonalLoop=1;jettySize=auto;html=1;" edge="1" parent="1" source="5bwVn5MdxZ3R_6Nli64p-4" target="dq1oUH23QymGpSojinx8-14">
          <mxGeometry relative="1" as="geometry">
            <Array as="points">
              <mxPoint x="700" y="170" />
            </Array>
          </mxGeometry>
        </mxCell>
        <mxCell id="5bwVn5MdxZ3R_6Nli64p-4" value="Email" style="ellipse;whiteSpace=wrap;html=1;" vertex="1" parent="1">
          <mxGeometry x="600" y="280" width="120" height="80" as="geometry" />
        </mxCell>
        <mxCell id="5bwVn5MdxZ3R_6Nli64p-17" style="edgeStyle=orthogonalEdgeStyle;rounded=0;orthogonalLoop=1;jettySize=auto;html=1;" edge="1" parent="1" target="5bwVn5MdxZ3R_6Nli64p-4">
          <mxGeometry relative="1" as="geometry">
            <mxPoint x="660" y="480" as="sourcePoint" />
          </mxGeometry>
        </mxCell>
        <mxCell id="5bwVn5MdxZ3R_6Nli64p-5" value="RabbitMq" style="shape=process;whiteSpace=wrap;html=1;backgroundOutline=1;" vertex="1" parent="1">
          <mxGeometry x="89" y="480" width="640" height="60" as="geometry" />
        </mxCell>
        <mxCell id="5bwVn5MdxZ3R_6Nli64p-7" style="edgeStyle=orthogonalEdgeStyle;rounded=0;orthogonalLoop=1;jettySize=auto;html=1;" edge="1" parent="1" source="5bwVn5MdxZ3R_6Nli64p-6" target="5bwVn5MdxZ3R_6Nli64p-2">
          <mxGeometry relative="1" as="geometry" />
        </mxCell>
        <mxCell id="5bwVn5MdxZ3R_6Nli64p-6" value="Actor" style="shape=umlActor;verticalLabelPosition=bottom;verticalAlign=top;html=1;outlineConnect=0;" vertex="1" parent="1">
          <mxGeometry x="150" y="50" width="30" height="60" as="geometry" />
        </mxCell>
        <mxCell id="5bwVn5MdxZ3R_6Nli64p-8" value="" style="shape=cylinder3;whiteSpace=wrap;html=1;boundedLbl=1;backgroundOutline=1;size=15;" vertex="1" parent="1">
          <mxGeometry x="40" y="360" width="60" height="80" as="geometry" />
        </mxCell>
        <mxCell id="5bwVn5MdxZ3R_6Nli64p-9" style="edgeStyle=orthogonalEdgeStyle;rounded=0;orthogonalLoop=1;jettySize=auto;html=1;entryX=0.5;entryY=0;entryDx=0;entryDy=0;entryPerimeter=0;" edge="1" parent="1" source="5bwVn5MdxZ3R_6Nli64p-2" target="5bwVn5MdxZ3R_6Nli64p-8">
          <mxGeometry relative="1" as="geometry" />
        </mxCell>
        <mxCell id="5bwVn5MdxZ3R_6Nli64p-10" value="1- List by all students in last semester&lt;br&gt;2- Split to batches 500 Students per batch" style="text;html=1;align=left;verticalAlign=middle;whiteSpace=wrap;rounded=0;" vertex="1" parent="1">
          <mxGeometry x="170" y="210" width="280" height="50" as="geometry" />
        </mxCell>
        <mxCell id="5bwVn5MdxZ3R_6Nli64p-12" style="edgeStyle=orthogonalEdgeStyle;rounded=0;orthogonalLoop=1;jettySize=auto;html=1;entryX=0.119;entryY=-0.017;entryDx=0;entryDy=0;entryPerimeter=0;" edge="1" parent="1" source="5bwVn5MdxZ3R_6Nli64p-2" target="5bwVn5MdxZ3R_6Nli64p-5">
          <mxGeometry relative="1" as="geometry" />
        </mxCell>
        <mxCell id="5bwVn5MdxZ3R_6Nli64p-13" value="Send Event for each batch" style="text;html=1;align=center;verticalAlign=middle;whiteSpace=wrap;rounded=0;" vertex="1" parent="1">
          <mxGeometry x="100" y="380" width="160" height="30" as="geometry" />
        </mxCell>
        <mxCell id="5bwVn5MdxZ3R_6Nli64p-14" style="edgeStyle=orthogonalEdgeStyle;rounded=0;orthogonalLoop=1;jettySize=auto;html=1;entryX=0.575;entryY=0.975;entryDx=0;entryDy=0;entryPerimeter=0;endArrow=none;endFill=0;startArrow=classic;startFill=1;" edge="1" parent="1" source="5bwVn5MdxZ3R_6Nli64p-5" target="5bwVn5MdxZ3R_6Nli64p-3">
          <mxGeometry relative="1" as="geometry" />
        </mxCell>
        <mxCell id="5bwVn5MdxZ3R_6Nli64p-15" style="edgeStyle=orthogonalEdgeStyle;rounded=0;orthogonalLoop=1;jettySize=auto;html=1;endArrow=none;endFill=0;startArrow=classic;startFill=1;" edge="1" parent="1" source="5bwVn5MdxZ3R_6Nli64p-3">
          <mxGeometry relative="1" as="geometry">
            <mxPoint x="400" y="480" as="targetPoint" />
          </mxGeometry>
        </mxCell>
        <mxCell id="5bwVn5MdxZ3R_6Nli64p-16" value="Command Send 500 Email with transcript" style="text;html=1;align=center;verticalAlign=middle;whiteSpace=wrap;rounded=0;" vertex="1" parent="1">
          <mxGeometry x="420" y="385" width="165" height="30" as="geometry" />
        </mxCell>
        <mxCell id="5bwVn5MdxZ3R_6Nli64p-18" value="Queue" style="rounded=1;whiteSpace=wrap;html=1;" vertex="1" parent="1">
          <mxGeometry x="210" y="495" width="90" height="30" as="geometry" />
        </mxCell>
        <mxCell id="5bwVn5MdxZ3R_6Nli64p-19" value="Queue" style="rounded=1;whiteSpace=wrap;html=1;" vertex="1" parent="1">
          <mxGeometry x="510" y="495" width="90" height="30" as="geometry" />
        </mxCell>
        <mxCell id="5bwVn5MdxZ3R_6Nli64p-20" value="" style="shape=cylinder3;whiteSpace=wrap;html=1;boundedLbl=1;backgroundOutline=1;size=15;" vertex="1" parent="1">
          <mxGeometry x="729" y="370" width="60" height="80" as="geometry" />
        </mxCell>
        <mxCell id="5bwVn5MdxZ3R_6Nli64p-21" style="edgeStyle=orthogonalEdgeStyle;rounded=0;orthogonalLoop=1;jettySize=auto;html=1;entryX=0.5;entryY=0;entryDx=0;entryDy=0;entryPerimeter=0;" edge="1" parent="1" source="5bwVn5MdxZ3R_6Nli64p-4" target="5bwVn5MdxZ3R_6Nli64p-20">
          <mxGeometry relative="1" as="geometry" />
        </mxCell>
        <mxCell id="5bwVn5MdxZ3R_6Nli64p-22" value="1- Failed DB Execution for extracting report (retry)&lt;br&gt;&lt;div&gt;2- Failed Email Send (retry)&lt;br&gt;3- i need to log the failed email send to resend (Email DB)&lt;br&gt;&lt;/div&gt;&lt;div&gt;4- i want to inform the staff member live email send status&lt;br&gt;&lt;/div&gt;5- Enhance Sql Stored Procedure extecution (UOB Version)" style="text;html=1;align=left;verticalAlign=middle;whiteSpace=wrap;rounded=0;" vertex="1" parent="1">
          <mxGeometry x="241.5" y="750" width="360" height="110" as="geometry" />
        </mxCell>
        <mxCell id="5bwVn5MdxZ3R_6Nli64p-23" value="" style="shape=image;verticalLabelPosition=bottom;labelBackgroundColor=default;verticalAlign=top;aspect=fixed;imageAspect=0;image=data:image/png,iVBORw0KGgoAAAANSUhEUgAAAyMAAACrCAYAAAB12EPtAAAgAElEQVR4Xu2dB3hURReGT2ghhCT03kKVIsWGVKUoSpEOFjqIAhaK/AKKgChFqiIgVUCQXpQmGkARUEAQpEqRDkFaKi2E/HMm3s3u5u7OzZZs4Zvn8cHsnjt37juzc+43M2cmIEkkQgIBEAABEAABEAABEAABEACBdCYQADGSzsRxOxAAARAAARAAARAAARAAAUkAYgQNAQRAAARAAARAAARAAARAwCMEIEY8gh03BQEQAAEQAAEQAAEQAAEQgBhBGwABEAABEAABEAABEAABEPAIAYgRj2DHTUEABEAABEAABEAABEAABCBG0AZAAARAAARAAARAAARAAAQ8QgBixCPYcVMQAAEQAAEQAAEQAAEQAAGIEbQBEAABEAABEAABEAABEAABjxCAGPEIdtwUBEAABEAABEAABEAABEAAYgRtAARAAARAAARAAARAAARAwCMEIEY8gh03BQEQAAEQAAEQAAEQAAEQgBhBGwABEAABEAABEAABEAABEPAIAafEyPUbN+nO3bumgufKmYOCsmb1yIN46qb/nDlHFyMjKW/uXFS6ZDhlyphRtyh79u2nEsWKUt48uW0W9X5iIkVHx1DuXDktbPp/OIImfjLMU4+YqiwD3+5FBfPnS1Wee/fu0a3bdyhHWKj8Li4unv48dJiyZslCFcuXo2xBQamu0fjxF3Wefkr3GTnfA4eO0B3xb1nBOH++vOnO4tbt2/Qg8QFlzx6se29+Vk62vk/3AuOGIOBlBK78e5W4jzNP3u4zuLwn/zlNV6/foMIFClDJEsVSUeW+4fDRv2X/VKxwISpetIjJ5tiJk/La4kUKUzHxn6fS6Elf0vP1n6HHqzyqW4Qo4XeyBWWlLKKv1hL3aRkyZtDtt60zsWVrzz9yn86pSqUKpuyY93XBS+vjue+PFeWw9ome4oj7ggAIuIeAU2Kk29sD6Pc9+yhbtuSXTBYnvbt3poFvv+me0rog183btlNoSAg9Wa2KU7nduBlF46ZMpwwZMlDhggXo/MVLlClTJhr2fv9UgmTDT1vo+40/UudX2lKNJx/XvS876glTZ1JUdDTNnPyZhU3Pvv9L9ZleJn8dPkpBwqGUES/sRtPP23+jyhXLE78UGElclqHv9aWiRQqlMh86ahw1fq6+fMZZ8xfRAVGeCuXKUHz8LTp15iwN7veWyVHHxsbRqElTTPw4M2471un8hUvSrmTxYhQcnE28GJyhmtWfoDYvNTFSXJfZjP9yBlWrXJEa1K2tm+fVa9fpk/Gf0ycf/I9CQrK77L7ICAT8hUDdJq1E/xZj8cI7cshAerFhPa98xJOnz9C02fNl38j/cd9TonhReqdnN1N5uW/n/0qHlxDPlVn6lScfqyq//3TCFxQXH09FhUDhayuJAZluHV7WfdZVazdSq2YvGuaQ1r5+8Mdj6KUXn9P1PzxQtmrdDzT6o0Gm+6/4fj39uOUXKWBUfa2erco/MrMjf5+QA1eBgVmoY7vW8t78+fWbN01/82cjRb9ar3ZNqv30k4b5wBAEQMC3CDgtRvjFl18yOf3+xz56pUcf2vHDGipUIL9XkmAB1bRRQ2rV1HjHb+tBzl24aBrt4hGd/w37hF5p1dzkjPi6s+cv0OdfzZEzIs/WrqHrDA6JUbWvvv6Gmr/4PC3/bp3DYuSLmXOlM7QlePSeg51U726ddMWFnr0tMfLLjt9p6687aPigAfKyC5cuUwExe6LNFH29aKmYNblNfXp0kd9/9vk0Khle3JCjY5H7RpcO8jrmyaN8X00ck27tK/7WLRrw4cc04ZOPKDhbNpv35WcMDAykV9u0SLey4UYg4CsEWIz07fW6S/re9Hhm7tMjr/xLRQoVlLfjAZQBQz+mEYPfkzPDx0/+Q1Nnz9MdgPhtz15a+f0GGjN8iOwDOa9+Q4bTu292l8LFPPGAy7S5CyzEgOr50trX2xMj7w0dKfusx/6bNRkzeSoFihmSgIAAKlK4oN0+2p6tPf/IA1c9Or5CecSKAv5/nvnnfnbY6AmC7wCLfpZFy9yFS2j8yKEqLPgeBEDARwm4VIwwg/CqNWj90gVyRJynaDv1epdiYmPp7t171KRRA4vlRrz8iGcMQrJnp3Ax8l1ALL9p+Gwd6az4hfOEmB6fO2WCCS0LCXPxwzbzvl0mZ2a445w/bRI9WqE8Xbtxg9p2fkOOsHC6fz+RFs2cQtxx7hajQFril8u6Navr2larXCnNVWrd4bMDGjF2IrVt3pQWr/zO5siUNjV9716CGAWabFeMsJNbIvLil/6cOcJMZfzsi+lyOYGWur7WXooS7shnL/iWEh8kyjqo+mhF6tHpVekg3/toJMXExJqu4RmPjJky0sRpMykhIYESxbKkELEsaUi/t02j/bbECIuLShUekTMjeolHzy5FXpGjipeFgx81cQpNGjXc5rI2LQ8eKTt05Bj9793e8qN9Bw7StyvW6DomZsPCLqOYrWJhzCOUr4tn5Xtv/mU7ZRVCgdsJvxBoSyk0sch8ODV74Tlhu8PixWDtDz/R6XPnZdn5hWTM51PliCcnZtS/d0+5fINfTqbM+pqmjB2Z5raDC0DA3wnYEyP83QcD3iHuQ29GRcsBrfmLl8slQr/s/J3+/OsQvffWG3Iwg/v9OQsXS79x69Zt4tmVdi2bSXz8nfU1pUuWEEJghPQT/PvlmYqINUscwm3e/7EQ4aVX3GdYJ/P+TvtuluiHuc82n2ng/orzSfxv+VruXLlk38M+gfvt/QcPy5mDjBkyyn6b/aqtvv6bpStp5+4/5Ow4c3lJDG5p/bEtMaLXZ/FAEgswFjw8qGhvZiQttuZlMB8E02b+v1m2knLnzKnrQ/hdocsr7eQsPhIIgID/EXCpGOGXxLHiRe2PLRsoc+bMxA6mY/s28oWQX25rv9iS3hYvdB3ataKFy1bRFNHZ/bxuhYwz2SteMtt07ilHn42IkVXrNtJYIS6061mUTBejS7si1onlU1/RwSNHacH0z2WNsRjipVmcrB2iPdu0VDePbn068QuL0fNlq9fKLNhR2huZ0u7DedgTI/wiztzeFy/menET1vfQRvS15WHs4CaK5UZFhDPWRu/1xAWvceYYGE4sMsqUCqeW/80k2RIjb/YfZLEMy5odl+2FBs/SM7WeJhYNEUIc8NT7qnUbKItoK00bPac7Dc9l/mTcZLmcq8IjZaXIePv1rhbrsrV7cb78AlO/Ti3Ty4k2Qjlq6PtyeQgv09v401aTmOFRwUZiKcJz9erKF4AvZ35NV65esxAjw8dMkI6dRw5Xi3Z39vxFMcLbQ96WZ3vMY2FUHNLSpmALAv5EgPteHiAxH+h5Wcwka/1ynFjOuWHZN3JQipMmOkZ9OMj0e+b+j5fHbv5uKeURL+6RYnlr7Rdb0JI50+mJqpV1r6nfvB292aWjKQ9zf5AWvlpfoo3Qc5/W5PkGUgBE/vsvlRCxIl1fbS8HbqwHUbS+lJeaarPD5v3W9xt/suhz2JcePX7CtOyXB5W+mDHH5F/0/AmLOL43DzSxyOBBJW0G2Zb/se7PzHkYESOavcrW2j/y0qtO7VubZkYG931LLFOeQa+1bUW//rZLCkZzkceCLW/u3KY6TEu9wRYEQMD7CTgtRrSYEQ404xd+FgA8SsydZ5P2nWj7xtUmCtyZ8lrSWZ+PkzMmZUqVFPEH75q+r/VCCxogRr+MiBGeJSmQL5/o2JPjDFjs1HupHf246ls6duIUffjJWPpYTKfzyBALIy1Zi5G1myJs2hqtPh5t+0w4SC1egq9jZ8AjPVoMibNihEcNeWZnUN8+ui/ifE/re2z/fQ+t2/QTjRk2xPQovNZ43uJlphkqW+KCX7Jvi2B0dqo80qaNjunZ80zHsNHjadqE0bozHcyBHaW21pod4CaxHrl1s8ZUS6wDjrxyVSxlmy1FqrbeWiswC4Q163+gnbv+kMGUvHyA89ETY/yywMvczIP92UnmDAszjbbxCOSHn34ml1pwm+V13eblZmbrf9xsejHgdeO8zE6b7eD11fxC9GqblvR4tcqpntdIPRttV7ADAX8iwH1vWGioxRLeGZPGykfk77q99jJ1ebWd6ZFZjPAAzPJ5M0yf6fmNdwYNpezZgmmUmFHQu+b1dwfSvyKm69MP35dxG44kjukbKwZmzGdVeeCBhVNPsYSUYx9Wrt0g+32eqWGfwP0MB2eXKV2S/th3QJahmpiZ1mZxtHJwv2UtRgaNGJVqgIZf4Gs+9biMW7PXz/Cy1mR/MNo0y27L3t5LvkpgmHO0Z6vnH7WYkaCsgRQaGiL9Ay8xXr5mHb0nYk55II9FKw9ecdKbaXKkHnENCICAdxJwWoxogmDmvEVCgBw3OQ6eueAYihziRdA81alRnSZ9OizVDAXbmMdzqJZp6QVDch6LZ0+VS7m2/rqTPv5sklwaxA5Oi2vRWypgy9ZIlWlLsdjpaC/s/NmAD0ZQJxGwzqNlnHg0r8EzdajGE4/Z3HHJ3swId9gJYhmXvQBpa4ej14Fb38NaXLDzn79kuXxpYEfL/Hhplz0xYqvcmhPhXVPMA/tZjJw4ddq09Irt2PlcvX491aihJmQ4uJ1H/Hhm4/sNP8oXD+v4DT2nzkxu3b5FGa12OeMdwc6IpVfWLwHW67f5/rxEwjwO5KBYNrZk1XdSWDd4prbFMgaIESO/Gtg8jARUy7Ss40n0fIBeHuZ2etfwQNW0OQtoxryFlF3MTPDsO/sho0kTFi+3bm4Rj8dihJdolhVigxP3+70HDDbFlPBgx6at2+RSWH6pZp/I8SLWS1n1+i29QR/zF369JcETxQYoFy9fpvBixWQwPS/x0jZDsdUv2RMRrhAjev5R467tpsUrI5auWUtdXm5rip1hJuyLtFkkiBGjrRV2IOCbBJwWI1oMB3f4T9RvTB/0f0eO/PAyqZYde9DR33+2mJnQMPEIF8d3mO+8xdPpb4klOLZmRvj7556tK4UFX1++bBmTyLCF/28xS9Ku25viPr3kyLs9h2htq6pSWx0tzxSw+DBPvIaX1/5WrliButvYUcWeGBk7/ANa92OEaeRNr2yumBlhB/vOG93l2mRO/DLOzsKeGOGXch7J4xgQc4HADsRaiHCeeru32BIjek6UP2vV9IVUsyh6Tn3y9Nk2gzD1guHNy2Yv6JSfg9dLjxOxOq3EDI82ggcxovrV4PuHlYArxIiRmRHrWENz3hy3wUuJ927dKAdcVMmWEOHrzHcP1BMj5nnb60tcMTPCAzy8IkAbdOMluhwwrxIjzCOrmJ3QdrMyL7OzYsSeEDG/D8/4tG/RTPoZLZCfmez584BpNh1iRNVS8T0I+DYBl4kRxsAvlBw3sW39StnRV2/YlJqK4D5tKRYLlmgRv8FrfXl6eOnq72nTym9lJ8Ti5aVXu5liRjgvXkPKy7x4mZX2fc/Or8kOV1s7zNdra4x5/TD/P/+bW2zFqC3PatmhuwyM51EWXjr2fL1n5HQ7J3u29qpW62gfE1PJWjyFPXvzl1S+lmMb2onAdvNtYFUxI6rOnTv1qmKGRltryw5p0IjR1EvslsXiQouJyJc3j2mk/+33h4p1zu1MO6nwiByPULK95ojriCB/e2KEn5vz4VgObZSQnQcHnn84sG+qpUzazJE20sgjiMPGTDTFlPCI2I2oKGooZpJ4S13eu19b2qAJiFFDB6XajljPqfMuX6vE8gnzgH9eEsCBpFo5Wr/UWGxkkLwcgMWLFjPC5eANFrQdwvh783XZ/DePxPKsGI92Wo+M+nbXgNKDgGsJuEKMWMcKcv/doHl7mj99silmxFqM8LbrHIPAiTc3ebJ+E0M7PnL/N0zEi7Vt0VR3h0JeasR9jjbru00E2vNMq/WuT9wvTJszn+6IZa/aRhzmZHnpLIsC8w09uP/85/RZ6i+WLfOMMG+NzgMf2o5+1n092/NssyZGtO12VWJEL7ZFK5ueGDHvm+0JF6P+0Vx0sL/SdtbiTUPuCr+g+R3ul4sXLWzI17q21SI3EACB9CDgUjHCBeaX/VJiy9Yvxow07abFI+e8kwmfoTFl7CdyX3kWJrwsa/fe/fKFPF+ePCKYLSe1aPKCnBnh75u/1p1OiTX7/D3vhMSxKOazIVqAIy8F45kHPlRww7IF9OWseTT5q1lyiRi/6PJhhEvnTJPixHz5GDuRs+cu2LS1VwHcifJWrtZJ2w3F+nNzMaLFWHBgv3mMhEqMcJ58ngV32HpnlmgB3Mxa22JY200rKSmJEu7fl7u/9O/T0yQQtPgNvqbfm6/Tjt17iM8e4b8zZcxE9evWkjtHqcSIteNiUaOXtDNKtF2suFx8cCavF9b24Gehyi8Z2tprPmeEY1h4qRXHsbRp3kT3vA89McJlYMcc8fOv8pl4xzIWYx8JkcSJ+fBGCty+OHEMy979B2XMCAuhcmIJhnkgpXZmDOfF8ScF8+eXa5z5hUFuMLB8ldccUJkeHQjuAQJGCbAYOX/xsoW5tmGJavmV+UXaLorsF7jf57hBbTmP3jKtxu06ySWZ/Ju1trdXdu2F3tqGdw3U4t94y1kewdfbqe9jsfEG+zy+p/kuhtb5aZt0XBOxHjyY9qGIo9R20+KZZY7Z436rm9ghUdt+17qvZ9/Hz867AmYIyCB3idy1909TvKCtGVstsPzLcZ+mGjTSEyPmfbP5c1jbGvGP/Iwc2zmgzxumw4AXLV8tl3uzEHn/nd7yc21WyXywy2ibgx0IgIBvEHBKjBh9xNt37sgOWe8UVf6OhQcHv5sv09Ly5p1POGm7Yendk4ML+VAq80B1trt4OVKInNypPuf7xYhRL/Py2LI1+oxptePDv7STytN6rT177rh5BM76JHA+ITercGp6J8SzYOPrtF2h+G92fmk5TZxH9xYsWWHaV9/oM+mVy7o8nJf16e5G8ze3Y+b8THoMtPrQW0Kmdy8OEg0TQavmebF4KVGsiPLsFEfKjmtAAAQsCXC/r7eRhR4n9jMcu2HUPi2sbfW5/Dn3b0b7eb2+0FbeXD697+z1cbaeyTwwXvXcen2z6pq0fs8czH0Pz27/sPnnNJ3DktZ7wh4EQMCzBNJFjBh9RF87FMvocz0sdmlZY+ytTGzNrqjKqx3MpR1yprLH9yAAAiDgDQS0WeoR4uwq82XD3lA2Fj9DRo4lXp6tLQH2hnKhDCAAAq4lADHiWp7IzccJOCpGfPyxUXwQAAEQAAEQAAEQ8AgBrxIjPO3OW9hyQDsSCHiCgCuWg3mi3LgnCIAACIAACIAACPgiAa8SI74IEGUGARAAARAAARAAARAAARBwjADEiGPccBUIgAAIgAAIgAAIgAAIgICTBCBGnASIy0EABEAABEAABEAABEAABBwjADHiGDdcBQIgAAIgAAIgAAIgAAIg4CQBiBEnAeJyEAABEAABEAABEAABEAABxwgYFiPnL91w7A64CgRAAARAwKcIFC2Uy6nywl84hQ8XgwAIgIBPEHCVrzAsRnyCCgoJAiAAAiAAAiAAAiAAAiDgMwQgRnymqlBQEAABEAABEAABEAABEPAvAhAj/lWfeBoQAAEQAAEQAAEQAAEQ8BkCECM+U1UoKAiAAAiAAAiAAAiAAAj4FwGIEf+qTzwNCIAACIAACIAACIAACPgMAYgRn6kqFBQEQAAEQAAEQAAEQAAE/IsAxIh/1SeeBgRAAARAAARAAARAAAR8hgDEiM9UFQoKAiAAAiAAAiAAAiAAAv5FAGLEv+oTTwMCIAACIAACIAACIAACPkMAYsRnqgoFBQEQAAEQAAEQAAEQAAH/IgAx4l/1iacBARAAARAAARAAARAAAZ8hADHiM1WFgoIACIAACIAACIAACICAfxGAGPGv+sTTgAAIgAAIgAAIgAAIgIDPEIAY8ZmqQkFBAARAAARAAARAAARAwL8IQIz4V33iaUAABEAABEAABEAABEDAZwhAjPhMVaGgIAACIAACIAACIAACIOBfBCBG/Ks+8TQgAAIgAAIgAAIgAAIg4DMEIEZ8pqpQUBAAARAAARAAARAAARDwLwIQI/5Vn3gaEAABEAABEAABEAABEPAZAhAjPlNVKCgIgAAIgAAIgAAIgAAI+BcBiBH/qk88DQiAAAiAAAiAAAiAAAj4DAGIEZ+pKhQUBEAABEAABEAABEAABPyLgFeIkajoaIqKjqUSxYpIutt27pL/1q1Z3b9o42lAAARAAARAAARAAARAAARMBDwuRg4cOkIDho6kBnVr0eB+b8mCjZ70pfxX+xv1BQIgAAIgAAIgAAIgAAIg4H8EPC5GOvXqS+1aNKWDR47pipEz5y5QdEwMValUwf/o44lAAARAAARAAARAAARA4CEm4HExwux5WdaOXXtSiZFe3TpSo9YdaObksRAjD3EjxaODAAiAAAiAAAiAAAj4JwGvFSOxcXF09O+TNHxQ/1RCJCoqyj9rA08FAiAAAulIIEuWLJQtW7Z0vCNuBQIgAAIgAAKWBLxWjCxcvooK5s9PE0YOTSVGEhMTUY8gAAIgAAJOEggICKAMGTI4mQsuBwEQAAEQAAHHCXitGOFHavxcfRncvmLeV5QjLMzxp8SVIAACIAACIAACIAACIAACXkfAq8UI76Y1dc58OnLsOE0d96nXwUOBQAAEQAAEQAAEQAAEPEfgXL1alHj9mrIAuT8YTqHtX1HawSD9CXiFGEn/x8YdQQAEvJ3A1weIbiWoS/lMMaJK+dR2sPB9Ary74rkLF1OdQcVbxEfHxOJsKt+vYjwBCKSZAMRImpF53QUQI15XJSgQCIAAE4AYQTswJ8DbwIdkD6aw0BDa/MsOWjp3ujwod8jIMXThUiQVKVRA/rtg+mSAAwEQeIgIQIz4fmVDjHhhHR65SrT1rLpggZmIelRV2zlq8de/RL+eU18dnJmoSxW1HSxAIC0E3CVGzscQfX/cWEler0aUJaMxW1i5l0BUdLQpdpAPxg0VouS1Ni3k9u+7ItbKm/cZ+AH17PwatoJ3b1UgdxDwKgIQI15VHQ4Vxu/FyA+niE7dVLMpm5vouXC1XXpY+KIYaSvOpJwnltUYSa0fISqQ3YglbGwR+P0i0d7Laj55g4nalVfbeaMFxIg31op3lEkTHbw0a9K0WbR64WxZMBYpnDjeEAkEQODhIAAx4vv1DDHyXx1CjKRuzGmZGYEYSd/OAGIkhXdaY0Z8dWZk+l6iB0nqdvZ8SaIyudR2vmqxSGz7vnP3XrmpCR+YqxIjOJfKV2sa5QYBYwSiWzSmBzeuK42z9X+fAlu0UtrBQJ+AO8+lghhJJzGy7gTR2Wh1E6+Qlyi/OIPM15ZpQYyo69aVFhAjvi9GzoizW9efNNYq3nycaOY+iBEWIl9/u9y03bueGOHlW326dzaBffDggTHIsAIBEPBJAhca1DG0m1auIcMopN3LPvmM3lBoPpeK/3NHghiBGLHZrjAzYolmzyWi3eI/VcoVRPRKRZWVc99DjFiKket3iA6JGCdVKhpKVK1A2mJG5v9FdM/AOav1SxCVz6MqQcr37hQjp4XQOXFDXZbSYgalkZhJ8YVkLUS0Mjds+QpFrF4s/2zZoQcNH9QfMSO+UKEoIwi4iACWabkIpAezgRgxEyPFxYvKT6fVtZFJHFj8xmNqO3MLzIyk0PDVmJG0iBHtBW/xYWPt5NVKRBvFKPlN8VKtStULE90Xg72IGUkmxcu0IEZSWg0v0/JHMRJetQaVCi9BIcEiEEqk8uVK06ihg0gTKfxZudIl/eJMqit9etKtX39RdQUU0qot5Rn+idIOBiDgzwQgRny/diFGfFyMdBQvsbP3G2uILcoS7RFBzxdj1faVxbkNYVmN76b1MCzTghhRtxtXWqQlgB1ixP/FiCvblrfnBTHi7TWE8nkTAYgRb6oNx8oCMeKgGOkuttSdIdZwG0lNyxAdFEtI3BEzAjFiWQMxd4m+OWikVojaix3A8oj4HKPJV8XIs2LmYPlRY0/ZqTJRSBZjtu62ghhJIZzWmBF/nBlxd3vj/P/t/zbFR/yovFX2Js0o7+jxSjtHDSBGHCWH6x5GAhAjvl/rECMQI7qt2FdnRiBGLKuTt/b1FjFyOY5o1TFjnWZXcW7N0iPGT2D3lpkRfsaj19TPWCIHUUURX+KuAHaIEXUd6FlAjDjGDVeBgCcJQIx4kr5r7g0xAjECMWLwt4SZEYOgbJhBjKSAgRhxri2562qIEXeRRb4g4D4CECPuY5teOfukGJn6hzE8L5RK3lHG6KGHaQlgxzKtlDrgE9jTGjOy4wJRpBhFViXe+ahmEZVVyvdpnRnZfIbo2i11/k8WIuIN7YzupuVNAeyYGUmpX3fvpoWZEfVvyZstIEa8uXZQNhDQJwAx4vstA2IEMyMemRmBGLHE7s7dtCBGIEZsuSpf2to3PdwtxEh6UMY9QMC1BCBGXMvTE7lBjECMQIxgZsTUBjiAfbWI64i9p+6OaokZq/j7RPsj1bYFsxPVEPaIGUlmhWVa6jbjCQuIEU9Qxz1BwDkC7hIjt3/fSZE9uxoqXPGdeylDduHokBwiADECMeL1YiQoE9FOsaxLlUIDiZqL7YvTspsWlmlZUoUYseTxejWitBx6iGVaql+pd38PMeLd9YPSgYAeAYgR328XECMQIxAjmBkxtQGIEYgR33drjj8BxIjj7GIWL6Tro0cqM8iYNx8V2/yr0g4GIGCUAMSIUVLeawcxAjECMQIxAjFio4/GzIj3Oi93lAxixHGqECOOs8OVzhGAGHGOnzdcDTECMQIxAjECMQIx4g3+yONlgBhxvAogRhxnhyudIwAx4hw/b7gaYgRiBGIEYgRiBGLEG/yRx8sAMeJ4FUCMOM4OVzpHAGLEOX7ecLXbxciZcxfo3IWLVLniI5QjLCzVM2/bucv0WVhoCFWpVIG0z+rWrK7LCOeMJGMJFIHdHSsRzd5vrCm1EMHdey4TXYxV20oizpUAACAASURBVLv7BPa0bO2LAHbL+qpemOj+A6K9oi5VyZET2LGbVgpVLNNStTD/+h5ixPH6hBhxnB2udI4AxIhz/LzhareKkXWbImjyV3OoQd1atHnbDlox76tUgqRizfpUtmRJyaJ8udI0auggGj3pS/n34H5vQYzYaSUQI5ZwsJtW6sYCMWLJBIceWvLAOSOWPCBGHH8tgRhxnB2udI4AxIhz/LzhareKkYYtX6HZn4+jEsWK0KLlqygqJpb6dO9s8dwtO/Sg1QtnW3xmLkZ4ZiU6JkbOmGgJMyPJJCBGIEZUnQjECMSIvTYCMQIxoupDjH4PMWKUFOxcTQBixNVE0z8/t4qR8Ko16PT+3+RT8dKrSdNmWQiPA4eO0IChI6nvm90pNCSEtGVZmhjp1a0jNWrdgWZOHgsxotM2IEYgRlRdBsQIxAjEiOpXkvK9L86MBFauQteGf6h8yAyhoVR8+x6lnblBZI9OdHt3ylJqWxeHvtKBMpcIN7y1b+ElK+lcgzqGylLwmyWUtYo48McNKeHCebrQuKGhnAsvW0NZHilvyDatRvdOnaCLLZsauqzIdxspc3jyahKkZAIQI77fEjwqRqKio2n63G/o0QqP0M7df9DufQcoYvViuUwrNi6Ojv59koYP6m8hRBi50ZmR2vnj6Fx8IJ2Ly6ysqRIh96hQUALt/DdYaZsxIInahEfT0n9yKG3Z4NmCcXQ8OpAu3VKXo1ToXcoTmEi7rmZT5p0lYxK9VDSaVpwxVo4GBWPpUFQQXbktgk0UqVzYXcqeOZH2XlOXIyjjA3qhaCytPpM6JkjvNs8XjqV914Po2h11OcrnuENZxXP+KexVKXvmB1RfPOP354yV48UiMfT71WC6eTejKmt6NNcdoqQkOnhTXY6wLIlUO3+8zHP9+VBl3mzQtFgMbbscTDEJ6rJUznWbEpMC6PDNrMq8c2VNpCdzx9Omi8bK0bx4NEVcDBEnq2dQ5v1Y7tt0KzGAjkWpy5E3632qKux/EnkbSa1KRNOG8yF0J1Fdjifz3KIowe2E+I2pUgHxG6+Q8y5tuWTspNy24VG05mwYJTwIUGVN1fPG07W7melUTBalbeHgBCodcpd+iTRWjvYlb9Ly0znpQZIya6ol2t6F+Mx0Nk5djhKh96lJWfXvUH1X/7CAGLGsR4iRFB4QI977G4cY8d66MVqydBUjs79ZTAumT7ZZNl7WNWHkUNrw0xZaKJZ1FcyfX/5tvkSLLzYqRhqVTKKTNwPo1E01jrK5iYqFJFHEGfVLRybxftStShLN/FNty3duUjqJDl0NoLPR6nJUyEuULyiJfj6nzptnRjpUTKI5B9S2fOfmZZLoj8gAwwHsoYFJtP28Ou9gobHalE8SJ1Wrbbkcrcol0c6LARQZp+ZRrQBJMfKbsFcljhl5STzjwkNqW86rnSjzlrMBdM3gblosRvZcVuedS+iV58OT3xqXHFHbs90roh5/OBVAN4XmUaWnCiVJMWI0gP2Zokm04pixcnR8NInW/B1AsfdUpSCqWThJipH9kWrbguKd+2lhv1rkbSR1qZxEy44G0K0EtXVd8Xw37gbQoX/VthwzUjV/Eq09YawcPaom0YKDAXQvUZ13veJJFBkfQEevqW1LiPGDCrmTaIOocyPpjceSaJbob4yIkedE2zsTHUAnbqhzxjItS0YQI5Y8IEZSeECMqPsTT1lAjHiKvOvu61Yx0qlXX/p48HsyZoRnO0LFblkcM8LLs1hg8MyItsMW/z8vydq0cqGcLeHU+Ln6chmXdeC7UTHyQimSDtmoGCkuXlR+Oq2Gy2Kke1WiGfvUtmzRtAzRQfGiZFSM5BeTEVvPqvPGMi1LRghgT91msEzLkgkC2C15QIw4LkaCatelq4MHKjvqgMCsVGLPAaWducGVPj3p1q+/KK8JadWWsExLicmmAZZpOc7Om66EGPGm2nCsLG4VI1pMSEhwMMXGx5tEBceSrFk4hw4dPUZff7uctO+7vtqWXmvbymI3ralz5tORY8dp6rhPTU8IMZKMAmIEYkT1s4cYgRix10YgRiBG7LUPzIyk0MHMiMrbeO57iBHPsXfVnd0qRmwV0nxGxJEHgRiBGNFrN5gZSU0FYgRiBGLEuJdJyzItX5wZKbohgs7WfsoQkAKzF1D0zKkIYP+PFsSIoWbjESN/FyO3ftlCV97uZYhtib2HKCCzOj7ZUGbpaOQRMeLs80GMQIxAjODQQ60NPFOM6LqItTEaM8JxSN8fN9YL4dBDY5z8xQpiJKUmIUYsWzXEiPf+yiFGUuoGYiQd2ynECMQIxAjECMSIfqf7vNj183RUcrycKmGZliUhiBGIEVu/mYdBjNw9cpguvdxK1W3I74v+sJUyFSpkyNbdRhAjECPubmO6+UOMQIxAjECMQIxAjLjaAUGMQIxAjECMaG3g9u87KbJnV0PdTPGdeylDdmNbtRvK0MwIy7TSSiyd7CFGIEYgRiBGIEYgRlztciBGIEYgRiBGIEZc3bOq80PMyH+M+JwRbO2b0mAq5yMKE2fZ/XpO3Yj4nJG2FYjmGdy9svUjRDsukOFzRoLEeSo7hb0qIYA9NSEEsFsywda+ljwehmVapyuXU3Ud8vt8E6dQ/Ia1FB/xo9I+e5NmhAD2FEw4gV3ZZOwauPME9ptTJlHUrK+UBQysUJFyfzTS75dpJZz8m2KWLlbyCHq6JoV1ex0zI0pSrjGAGIEY0W1JECOWWJ4US2P5eLrdl9Q/PD70sJFYt89p8WG1PVu8Wolo40kydOhh9cJE9x9gZkQjiwB2yzaGmBFLHhAjyTwyhIYSdtOybBsPwzkjECMpdZ77g+EEMWLsnSS9rSBGIEYgRgyewA4xYtlUahUhir9Phk9gryHsVx0z1sV1rUK09AgZOoEdYgRixF6r8gYxUnz7LjrzpGjUBlL+qTMpdskitxx6CDECMWKrCWJmxJIMZkYMdFYuNIEYgRiBGIEYMbWBTpWJVgvBEHtP3ctAjFgyql+C6HIc0dFranYlchBVzEO0XsyGGUlvPk40cx/RgyS1NWZGLBlBjCTzwMxI6t8OZkZSmECMQIyovYv7LCBGIEYgRiBGIEZs9LE4Z8R9zie9coYYgRix1dYgRiBGbLUNzIykVw+dfB+IEYgRiBGIEYgRiJH09TzpeDeIkYdLjETNm003J45TtrBMRYpSgZlf04XGDZW2bMDnjFz9aDDdO3ZUaZ/zjd6UlCkzRU39XGmbpVQZyjt+El1s2VRpywZFvttIV/r2oYTT/yjtc77dj5Lu3EYA+3+k3B0zcv75Z+hBnJgeV6Q8H4+ikBatVWam77G1r2FU6WuIrX2TeQeKXaY6isDn2fuN8W9RlmjPZaKLsWp7BLBbMkIAe+o2g2ValkywTEvdr3jCAmIEYkSv3UGMWFLBMi1LHo7MjECMON7DY2bkP3bY2teyEUGMQIyouhWIEYgRVRvxhu8hRiBGIEawtS+3AcyMpP4lXH2/P8VtXK/sqoOff4HyjVfP9CkzsmEAMQIxots0IEYgRlSdCsQIxIiqjXjD9xAjECMQIxAjECP6vTHEiBNeCsu0kuFhmZZlI8Khh6l/VDj00JIJDj205IFDD1N4uPPQQ2ztm8I5Y958VHjJSjrXoI6ht4CC3yyhm+PH0p0Dfyrtc3TpQQG5ciJm5D9S3hQzcmP8GIpe8LWyDrNWe5wKzv9WaWducK5eLUq8rt7GEDMjmBlJU8NSGUOMQIzotRGIEYgRVd8BMQIxYquNQIxYkikwewFFz5xKt3fvUv2syN0nsEOMpFSBrwawQ4yk1KE3BbBjZkTZvdk2gBiBGIEYwQnsWhvAoYeWvwacM2LJA8u0knn48jkjECMQI/ZeGTEzkkKnxN5DFJA5s+E3bIgRw6hSG0KMQIxAjECMQIzod6IQIxAjei0DYsSSCnbTsuTh7t20MDOSfjMjZ5+uRkkJCcq37LxjJ9LtnzcjgF1JyoYBxAjECMQIxAjECMSIER+CmRHMjOi1E4gRiBF7/Ycvb+0LMWLEM7jABmIEYgRiBGIEYgRixIg7gRiBGIEY8fxuWpgZwcyIvf7aK7b23bZzF4WFhlCVShVkWflvTnVrVtctO8QIxAjECMQIxAjEiEbgwKEjFB0Tq+szIEYgRiBGIEa4DTwsu2lhZsTIMJWVTcOWr9BTj1WhC5ciqfoT1ahP9840etKX0mpwv7cgRuwwxda+lnCwm1bqxoKtfS2ZYDctSx7+sLXvkJFjpP8oUqiA/HfB9MkWDwkxAjECMQIxAjGi836AmJFkKOs2RdDGiK00ddyn8m8WJhGrF1uIkTPnLogRrxjTrAnbYWYkmR/ECMSISv9DjECM2Gsjvi5GoqKjqVHrDrQrYq18zD4DP6CenV+z8BcQIxAjECO+JUZy9h1Alzu/qnJv8vtiW3fQxTbNfe6ckbv79lLsmpXKZ8z2TH0KadOWrrzdS2nLBrybFmZGDKFKMbKeAWnZoQf16/067di1Rxr16tZROpqZk8daOJfh87YbulPpnEQ3bov/7qjNcwcR5QgkOhWlts0QQPRYAaI/Lqtt2aJsLqJ/44mi7qrt82Yjyi52ZTsdrbbNlIGIT0rfF6m2ZYtHchNdiiWKuae2zx9MlDUT0VkD5cgiylEhL9H+K+p82aJCHqJzMURxBspRMDsRP+d5Ya9KgRmTn/HAvyrL5O8riTL/I+r7lnrTCSocknzNRcFPlYIEN257nA5eVVknf/+oqMeTN4hu31fbFxFleZAk6jJObRss2lKJMKLD6vOgZGZV8hMdE7Z3E9V5FwsluveAKNJAOUKyEBUR9kcNlqOaKMchwS5B5K9K/Hy3BDf+jalSmPiNFxBt6u/rKsvk7x8Xv3Nu14mCtyqF50hu01dvqSxFX5OVKJ/4rR8XdW4kPVEweVmegWJQKdH2okSfd130fapUvHBe6vpcOZWZ137PS3onTZtFqxfOlmXUm1Vf1LK9ofIHN2pMCSf+pnv/nFLaZylTjjIXK07xm39U2gZkzERh3V6nqFnTlbZskL1xM7p76CAlnDujtA8sX5Ey5s9Pt37eorQNCAyksNc6UdTcWUpbWY6XWtLdvXso4eIFpX1gpcqUMUdOurX9F6VthmzB4uWqvTgAb67Slg1CWrah2zt30P0raoebtepjFBAURLd/26HMO0NoGGVv1pxiFi1Q2rJBaNuXKX7rZkq8pu7Ugx5/kpIyZKQ7e35X5p0xZ24Kfr4RxSw1dtBf6MsdKP6H9ZQYdVOZd9BTNSjpfgLd2feH0jaTOIwy6Jl6FLtiqdKWDcI6dKEMIf85RgNX3N653dDBlZkKFKKgp2sYelGX5ejcnWKXLaYHt9Udb7Y6z1Lijet09/BBZYkzFylKgeIAxri1a5S2bJCj+xsU/c3XlHRP/WKTrV4DSrx8me4eO6LMO3PxcOKdzuI2rlPaynL07E3Rs2dQ0gO1Ew9u2IgSzpymeyePK/POUqo0le7UiapVdo+/8GjMiD0xEhsXR0f/PknDB/W3ECJMbMWan+jSJXUHqaTrhMED8TZ46uxVKhMu3iKRfJbAmfPXqUDeUMqa1fi+3D77sH5a8MirMRSYJRPlDBNv90hpIpA/b05q37ZFmq7xJmMjYgT+wptqzLfLAn/h2/XHpYe/cLwO3ekvvE6MsPjY8NMWWrh8FRUUIz4TRg5NJUYcR+m6K+/eS6BBw76gSaMHuC5T5JTuBEZPmEsdX25CRQqLoXgknySweMUmES+Qj+rUrOaT5UehHSegJ0ZCxWYoHHvoTQn+wptqw/GywF84zs5broS/8JaasCyHR8UI74Ayc/4iGTNivvZXmzFp/Fx9GjB0JK2Y9xXlCBNrMbwowbl4UWU4URQ4FyfgecmlcC5eUhEeKoYWa8i356W+erPpHiqa6bbwF56uAdfcH/7CNRw9mQv8hSfp2763R8UIF4sDDi9dvkKXIq/QO290pdfatrJY9zt1znw6cuy4KcjdWzDCuXhLTThXDjgX5/h5w9VwLt5QC54rwyIxi/71t8tlAcqVLul1voLLBX/hufbhyjvDX7iSpmfygr/wDHfVXT0uRlQF9Nbv4Vy8tWbSVi44l7Tx8kZrOBdvrBWUyZwA/IV/tAf4C9+vR/gL76xDiBHvrBeUCgRAAARAAARAAARAAAT8ngDEiN9XMR4QBEAABEAABEAABEAABLyTAMSITr3wQYs5wkJSBc1zwH2VShV0a5KvOXfhIhUrUphKFCtistE+r1zxEa8LwvfOJumaUvGGCFHRsRZ1wTnbqlv+jq/56/AxChO78Wj1rH2mlcq6fl1TWuRii4Deb85eHWr5cL2dPX/R4vfKOy+Z1y2og4ArCMBfuIKiZ/OAv/Asf1fdHf7CVSTTPx+IESvmfCr8+yNG0fTxo6luzeqmb3mHL9756/T+31LVEn934dJlsb1oQdq8bQf1fbM7NW3UUJ4wP/mrOdSgbi35uTfuCpb+Tc79d+QOiXdhY+6D+71luqGtumUDbYvQpx6vSkePnxR1WYBGDR0kPx/40SdUqEDy1r9tmjeWmywguZcAvxy8M2gYxcbGmQ604zvaq0PzEmkbY2iH4fGOS089VkX8TiOp+hPVvG7rV/fSRO7uIgB/4S6y6Zcv/EX6sXbXneAv3EU2/fKFGDFjzSNc46ZMl6KiVvUnTWKEd2vhtOK7DRYvRrzT12ttWljMeJjve88vQLM/HydH5zmPqJhYvASlQ9vu1KsvtWvRlA4eOWYSI7bqVq8OuYjhVWtI4cn1uWPXHgtRkw6P8NDfYsjIMdS+5Us0fMxE02/OVh3yC2HRwoVMsyD8Wzt34RLt3rtfXsvfb4zYatplyXwr2IceNAA4TAD+wmF0XnUh/IVXVYdDhYG/cAibV10EMaJTHTzTYS5GNBPew14baeXP+O9Jo4ablgKxOv/gk8/oxYb15MyI9kLLttaHc3lVK/DDwtgSEdZ1a12HjIIFykUx08UzI9rW0lyn5i+8fojMKx/J+jfHhbSuQ3ZENZ96Qv7m+AXxo9HjaUCfniYho51bpM2ScZ79er9uMfPplQ+PQvkEAfgLn6gmu4WEv/D9OtTeyczf0eAvfKdeIUacECPml/IL0dG/T8qPtEO3IEY890Mw6lzMS8gj6jz7FRsfb1pqx1P428XMSA4RR7JpyzbT8i3PPdnDdWcjYsScCI9yfjz4PRm/NWnaLDl4ADHycLWZ9H5ao2IE/iK9a8b4/eAvjLPyZkv4C2+uHftlgxhxkRjRsuGR2fbdetGuiLWpZkZmf7OYFkyf7LutxYdK7ohzMX+86g2b0dK50y0C4Hnmq9aLLenwzi0+RMK3i5oW56IdfsexQhzD9ceff8mDVHnJFifzmRFvPKXbt2vq4S29I2IE/sK72gv8hXfVh6Olgb9wlJznr4MYcUKM2Nq5oce7Ayli9WLSRmk5ZoQdVqgYXe/TvbPna/0hKIFR52JrhzQWI5tWLpSkcoSFyX+1QEeuW6T0IWDEuWi7GfFOaBzfw8lcjFQq/4jcfGLquE/ljmmNWneQgwVIIOAKAkbFCPyFK2i7Jw/4C/dwTe9c4S/Sm7jr7gcx4oQY4WVYaxbOkS86ly5fkTnxEp+PBvaV69G1l9eQ4GD5OXbTcl3DVeVk1LlodchLsSK2/mqqw5ZNX5DCUduVSavbCSOH2tzeWVUmfJ92AkacC9s0rFfHQuhbx2hp9Xgp8oqcLcGOaGmvC1yhT8CoGIG/8N4WBH/hvXWTlpLBX6SFlnfZQow4UR88yqqNmjuRDS71IAHUoQfhu+jWqEMXgUQ2biWAdupWvOmSOeowXTC79SaoQ7fidThziBGH0eFCEAABEAABEAABEAABEAABZwhAjDhDD9eCAAiAAAiAAAiAAAiAAAg4TABixGF0uBAEQAAEQAAEQAAEQAAEQMAZAhAjztDDtSAAAiAAAiAAAiAAAiAAAg4TgBhxGB0uBAEQAAEQAAEQAAEQAAEQcIYAxIgz9HAtCIAACIAACIAACIAACICAwwQgRhxGhwtBAARAAARAAARAAARAAAScIQAx4gw9XAsCIAACIAACIAACIAACIOAwAYgRh9HhQhAAARAAARAAARAAARAAAWcIQIw4Qw/XggAIgAAIgAAIgAAIgAAIOEwAYsRhdLgQBEAABEAABEAABEAABEDAGQIQI87Qw7UgAAIgAAIgAAIgAAIgAAIOE4AYcRgdLgQBEAABEAABEAABEAABEHCGAMSIM/RwLQiAAAiAAAiAAAiAAAiAgMMEIEYcRocLQQAEQAAEQAAEQAAEQAAEnCEAMeIMPVwLAiAAAiAAAiAAAiAAAiDgMAGIEYfR4UIQAAEQAAEQAAEQAAEQAAFnCECMOEMP14IACIAACIAACIAACIAACDhMwCfFyNazREeuiWdOsvPcAUQV8hDVK+4wG1wIAiAAAiDg4wSuffQBxX63UvgLOw4jIIBCmremPB9/6vTTbv99Dz1aoRyFhYY6nRcyAAEQAIGHgYBPipGpe4mE1lD5FqlV+jxuuxqfqN/Y9GUO4TjGjviAHq/yqMfr/fqNm5Q7V06PlwMFAAEQAAFfJ3C6yiP2nYX2gEKQhB84lubHvX3njrwmKGtW+W+3twfQe2+9SRXKlUlzXrgABEAABB5GAr4pRv4wXlV9nrBtG161Bp3e/5s02PrrTnrrfx/S4d+2GM/cTZZ1m7SibetXuSl3ZAsCIAACDw+B05XLGX7Y8L/+NmyrGY6e9CWVK1OKWjV9EWIkzfRwAQiAAAiICYYkkXwNxFQ3iBFmwOJkd8Q6ypsnN33+1Rz6ZtlKSkxMpHp1atLET4ZJTFNnz6MZ8xZSlixZqOur7Sjil+20+pvZtDFiK/24dRtN+jTZzvxvHjnr0rsfnTpzVuY3ZthgalT/WTp45Cj17Ps+Jdy/T/fu3aOP/tePtmzbIa8tX7YM1XjqcerVrSO17fwGxcbHS5sObVvR/97t7WtVhvKCAAiAgEcIuEqMsE+Yt3iZfIaypUrSwhlf0Jr1m2jYmAmUM0eYXJa1YdkCOTNSpFBB2vDTFrp16za90PBZk/9YtymCho+dKP2AlkfmzJmp3wcjqErF8jRx2kyqVf1J6t29Uyrf0OalJh7hh5uCAAiAgLsJQIyImREWCwuXraLFK9fQlu+W0S87fqMvZ82j5fNmSP4tO3Snt3p2pdLhJahxu070x9YNckp+/Jcz6PuNm+Qsxqp1G4kdzdwpE+Q15n/3/3AEVa5QnroI8XLtxg16pkkbOQPTa8BgqlOjOr3apoW8JiEhgdgxmc/YTJ4+m25GRdOIwQMsbNzdMJA/CIAACPgDAVeIkc3bttMIISI2r1kq++iR4z+nq9eu0RdjRkrx0bRRQ4uZkQJ589KojwbJPr32iy1p4cwpFJwtG7Xp3JN+WbdC5vHe0JEUXrwo9enRRebBacbEMfI7W77BH+oDzwACIAAC1gQeejHCsRk841C8aBFa9vVXUmTwtDvPcpQtFS55HT91mp6vV1dOxZsLjiN/n6A3+7+vFCO87Kpo4cKUPTibzI8DHFnoXL5yhfoNGU6vtG4hHFJnCg0Jkd+bixG+R5fefal2jaeoX6/XRT6F0IpBAARAAAQMEnCFGGGfwGlwv7fkv+Z9v54Yea1tS2pQt7a01WJIjp04SWMnT6Wqj1aUn1+KvCJn4XkAi23Mr2Hxo+cbDD4yzEAABEDApwg89GKEY0Z49Kr6c83EtPsUGXTIjic2Ll4KBC2FZA+WS7IcFSMfDx5IZf4TN5xnPuGEeARMm5WZPneBmP14j5qJETZzMcK2XD6e8h/7+TRq16IZ9e3Vw6caGQoLAiAAAp4i4AkxYh7Abi5GVny3nsZ9/KEJRdbAQLlZiV7Qu55v8BRD3BcEQAAE3EkAYuS/APZlq9fS/CXLaf3SBbRpy8/0xYy5tGbhHCkYNEFw4p8z1LVPP9q+cbX8fN63y2juoiVyZoRHsj4TYmHTym+l/ZCPx1Dk1aty1Kv3e0OoXOlS9O6b3U158fXasiz+8NsVa0QQ/Q6a9fk4KUaO79km72Fus/fAQRr40Ui5lAwJBEAABEBATcAVYoR9wuwFi01Ld7nv371vP00bP0oKiRfqP0vtWjaThbEWFtrfwdmC6KVXu9LvP6017byl9e/W19jyDeqnhQUIgAAI+B4BiJH/xAhXXZP2najzy22lU+E4j4iff5WB6pwWz55KZUqG08hxk2n5d+vksq5sQUFyqRWLEXYeTdp3FjMqcXJtMK8FTnzwQIoRjhPhIPSomBjKmDGjXGrFQe9vvz+U9gmBUbhgATrxz2laMH2y2J++vFwvfPDIMXq2dg0qkC8fzVm4mCqL4Ma/Dh+loQP7mtYm+15zQ4lBAARAIH0JuEKMcInZJ2z/bbdcTnvn7l1as2gO5cmVi9aKWMH3h31KpcKL09rF82yKEZ51N98AhfMcOWQgvdiwXqprbPmG9CWHu4EACIBA+hDwTTHionNGjCDWO/ODhcd9sRvK6bPnTTEjWl4xsbFy1EubUTG/h/V+9Pwd58Wfa/Ei5vmYf4azR4zUFmxAAARAwJKAK88Z0fp+7UwR7U62PrdVF0b6c1u+AfULAiAAAv5GwCfFiLecwG4exOhvDQPPAwIgAAL+QCC9T2D3B2Z4BhAAARBITwI+KUbSE5C9e/FuKDPFmSPDByVvy4gEAiAAAiAAAiAAAiAAAiBgnADEiHFWsAQBEAABEAABEAABEAABEHAhAYgRF8JEViAAAiAAAiAAAiAAAiAAAsYJQIwYZwVLEAABEAABEAABEAABEAABFxKAGHEhTGQFAiAAAiAAAiAAAiAAAiBgnADEiHFWsAQBEAABEAABEAABEAABEHAhAYgRF8JEViAAAiAAAiAAAiAAAiAAAsYJQIwYZwVLEAABEAABEAABEAABEAABFxKAGHEhTGQFAiAAAiAAV4F4JgAAAD9JREFUAiAAAiAAAiBgnADEiHFWsAQBEAABEAABEAABEAABEHAhAYgRF8JEViAAAiAAAiAAAiAAAiAAAsYJ/B8hagHSvTC0hAAAAABJRU5ErkJggg==;" vertex="1" parent="1">
          <mxGeometry x="20" y="880" width="803" height="171" as="geometry" />
        </mxCell>
        <mxCell id="dq1oUH23QymGpSojinx8-1" value="EXEC usapp_transcript&#xa;    @DomainAccount = N&#39;20162896&#39;" style="text;whiteSpace=wrap;" vertex="1" parent="1">
          <mxGeometry x="780" y="310" width="230" height="50" as="geometry" />
        </mxCell>
        <mxCell id="dq1oUH23QymGpSojinx8-2" value="List&amp;lt;StudFacultyCode&amp;gt;&lt;br&gt;SeUserId" style="whiteSpace=wrap;html=1;aspect=fixed;" vertex="1" parent="1">
          <mxGeometry x="20" y="580" width="140" height="140" as="geometry" />
        </mxCell>
        <mxCell id="dq1oUH23QymGpSojinx8-4" value="" style="shape=cylinder3;whiteSpace=wrap;html=1;boundedLbl=1;backgroundOutline=1;size=15;" vertex="1" parent="1">
          <mxGeometry x="270" y="370" width="60" height="80" as="geometry" />
        </mxCell>
        <mxCell id="dq1oUH23QymGpSojinx8-6" style="edgeStyle=orthogonalEdgeStyle;rounded=0;orthogonalLoop=1;jettySize=auto;html=1;entryX=0.5;entryY=0;entryDx=0;entryDy=0;entryPerimeter=0;" edge="1" parent="1" source="5bwVn5MdxZ3R_6Nli64p-3" target="dq1oUH23QymGpSojinx8-4">
          <mxGeometry relative="1" as="geometry" />
        </mxCell>
        <mxCell id="dq1oUH23QymGpSojinx8-7" value="Batch Number&lt;br&gt;Order Number&lt;br&gt;StudFacultyCode&lt;br&gt;EMail Send Status&lt;br&gt;SeUserId" style="whiteSpace=wrap;html=1;aspect=fixed;" vertex="1" parent="1">
          <mxGeometry x="649" y="590" width="140" height="140" as="geometry" />
        </mxCell>
        <mxCell id="dq1oUH23QymGpSojinx8-8" value="OrderNubmer&lt;br&gt;BatchNumber&lt;br&gt;Total Students Count" style="rounded=1;whiteSpace=wrap;html=1;" vertex="1" parent="1">
          <mxGeometry x="225" y="70" width="120" height="60" as="geometry" />
        </mxCell>
        <mxCell id="dq1oUH23QymGpSojinx8-10" style="edgeStyle=orthogonalEdgeStyle;rounded=0;orthogonalLoop=1;jettySize=auto;html=1;" edge="1" parent="1" source="dq1oUH23QymGpSojinx8-9" target="5bwVn5MdxZ3R_6Nli64p-4">
          <mxGeometry relative="1" as="geometry" />
        </mxCell>
        <mxCell id="dq1oUH23QymGpSojinx8-9" value="Actor" style="shape=umlActor;verticalLabelPosition=bottom;verticalAlign=top;html=1;outlineConnect=0;" vertex="1" parent="1">
          <mxGeometry x="645" y="40" width="30" height="60" as="geometry" />
        </mxCell>
        <mxCell id="dq1oUH23QymGpSojinx8-12" value="Query Failed Requests" style="text;html=1;align=center;verticalAlign=middle;whiteSpace=wrap;rounded=0;" vertex="1" parent="1">
          <mxGeometry x="700" y="40" width="170" height="30" as="geometry" />
        </mxCell>
        <mxCell id="dq1oUH23QymGpSojinx8-13" value="Resend Failed Requests" style="text;html=1;align=center;verticalAlign=middle;whiteSpace=wrap;rounded=0;" vertex="1" parent="1">
          <mxGeometry x="450" y="40" width="170" height="30" as="geometry" />
        </mxCell>
        <mxCell id="dq1oUH23QymGpSojinx8-14" value="Cloud &lt;br&gt;Cloud Watch Mertrics" style="ellipse;shape=cloud;whiteSpace=wrap;html=1;" vertex="1" parent="1">
          <mxGeometry x="960" y="90" width="320" height="170" as="geometry" />
        </mxCell>
        <mxCell id="dq1oUH23QymGpSojinx8-17" style="edgeStyle=orthogonalEdgeStyle;rounded=0;orthogonalLoop=1;jettySize=auto;html=1;entryX=0.363;entryY=0.112;entryDx=0;entryDy=0;entryPerimeter=0;" edge="1" parent="1" source="dq1oUH23QymGpSojinx8-9" target="dq1oUH23QymGpSojinx8-14">
          <mxGeometry relative="1" as="geometry">
            <Array as="points">
              <mxPoint x="660" y="30" />
              <mxPoint x="1076" y="30" />
            </Array>
          </mxGeometry>
        </mxCell>
      </root>
    </mxGraphModel>
  </diagram>
  <diagram id="tToPYuM1LC59Zlf37lMz" name="Page-3">
    <mxGraphModel dx="1194" dy="1796" grid="1" gridSize="10" guides="1" tooltips="1" connect="1" arrows="1" fold="1" page="1" pageScale="1" pageWidth="850" pageHeight="1100" math="0" shadow="0">
      <root>
        <mxCell id="0" />
        <mxCell id="1" parent="0" />
        <mxCell id="AQar7df0eeI1V_TojDgb-1" value="&lt;div&gt;-&lt;/div&gt;&lt;div&gt;-&lt;/div&gt;&lt;div&gt;-&lt;/div&gt;&lt;div&gt;-&lt;/div&gt;&lt;div&gt;-&lt;/div&gt;&lt;div&gt;-&lt;/div&gt;&lt;div&gt;-&lt;/div&gt;&lt;div&gt;-&lt;/div&gt;&lt;div&gt;-&lt;/div&gt;&lt;div&gt;--&lt;/div&gt;&lt;div&gt;-&lt;/div&gt;&lt;div&gt;-&lt;/div&gt;&lt;div&gt;-&lt;/div&gt;&lt;div&gt;-&lt;/div&gt;&lt;div&gt;--&lt;/div&gt;&lt;div&gt;-&lt;/div&gt;&lt;div&gt;-&lt;/div&gt;&lt;div&gt;-&lt;/div&gt;&lt;div&gt;--&lt;/div&gt;&lt;div&gt;-&lt;/div&gt;&lt;div&gt;-&lt;/div&gt;&lt;div&gt;-&lt;/div&gt;&lt;div&gt;-&lt;/div&gt;&lt;div&gt;-&lt;br&gt;&lt;/div&gt;" style="text;html=1;align=center;verticalAlign=middle;whiteSpace=wrap;rounded=0;" vertex="1" parent="1">
          <mxGeometry x="210" y="300" width="60" height="30" as="geometry" />
        </mxCell>
        <mxCell id="AQar7df0eeI1V_TojDgb-2" value="&lt;div&gt;-&lt;/div&gt;&lt;div&gt;-&lt;/div&gt;&lt;div&gt;-&lt;/div&gt;&lt;div&gt;-&lt;/div&gt;&lt;div&gt;-&lt;/div&gt;&lt;div&gt;-&lt;/div&gt;&lt;div&gt;-&lt;/div&gt;&lt;div&gt;-&lt;/div&gt;&lt;div&gt;-&lt;/div&gt;&lt;div&gt;--&lt;/div&gt;&lt;div&gt;-&lt;/div&gt;&lt;div&gt;-&lt;/div&gt;&lt;div&gt;-&lt;/div&gt;&lt;div&gt;-&lt;/div&gt;&lt;div&gt;--&lt;/div&gt;&lt;div&gt;-&lt;/div&gt;&lt;div&gt;-&lt;/div&gt;&lt;div&gt;-&lt;/div&gt;&lt;div&gt;--&lt;/div&gt;&lt;div&gt;-&lt;/div&gt;&lt;div&gt;-&lt;/div&gt;&lt;div&gt;-&lt;/div&gt;&lt;div&gt;-&lt;/div&gt;&lt;div&gt;-&lt;br&gt;&lt;/div&gt;" style="text;html=1;align=center;verticalAlign=middle;whiteSpace=wrap;rounded=0;" vertex="1" parent="1">
          <mxGeometry x="530" y="280" width="60" height="30" as="geometry" />
        </mxCell>
        <mxCell id="AQar7df0eeI1V_TojDgb-3" value="" style="endArrow=classic;html=1;rounded=0;" edge="1" parent="1">
          <mxGeometry width="50" height="50" relative="1" as="geometry">
            <mxPoint x="250" y="150" as="sourcePoint" />
            <mxPoint x="550" y="120" as="targetPoint" />
          </mxGeometry>
        </mxCell>
        <mxCell id="AQar7df0eeI1V_TojDgb-4" value="" style="endArrow=classic;html=1;rounded=0;" edge="1" parent="1">
          <mxGeometry width="50" height="50" relative="1" as="geometry">
            <mxPoint x="250" y="150" as="sourcePoint" />
            <mxPoint x="540" y="450" as="targetPoint" />
          </mxGeometry>
        </mxCell>
        <mxCell id="AQar7df0eeI1V_TojDgb-5" value="n " style="text;html=1;align=center;verticalAlign=middle;whiteSpace=wrap;rounded=0;" vertex="1" parent="1">
          <mxGeometry x="190" y="90" width="60" height="30" as="geometry" />
        </mxCell>
        <mxCell id="AQar7df0eeI1V_TojDgb-6" value="m" style="text;html=1;align=center;verticalAlign=middle;whiteSpace=wrap;rounded=0;" vertex="1" parent="1">
          <mxGeometry x="530" y="80" width="60" height="30" as="geometry" />
        </mxCell>
        <mxCell id="AQar7df0eeI1V_TojDgb-7" value="&lt;div&gt;n*m&lt;/div&gt;" style="text;html=1;align=center;verticalAlign=middle;resizable=0;points=[];autosize=1;strokeColor=none;fillColor=none;" vertex="1" parent="1">
          <mxGeometry x="330" y="580" width="50" height="30" as="geometry" />
        </mxCell>
        <mxCell id="AQar7df0eeI1V_TojDgb-8" value="&lt;div&gt;-&lt;/div&gt;&lt;div&gt;-&lt;/div&gt;&lt;div&gt;-&lt;/div&gt;&lt;div&gt;-&lt;/div&gt;&lt;div&gt;-&lt;/div&gt;&lt;div&gt;-&lt;/div&gt;&lt;div&gt;-&lt;/div&gt;&lt;div&gt;-&lt;/div&gt;&lt;div&gt;-&lt;/div&gt;&lt;div&gt;--&lt;/div&gt;&lt;div&gt;-&lt;/div&gt;&lt;div&gt;-&lt;/div&gt;&lt;div&gt;-&lt;/div&gt;&lt;div&gt;-&lt;/div&gt;&lt;div&gt;--&lt;/div&gt;&lt;div&gt;-&lt;/div&gt;&lt;div&gt;-&lt;/div&gt;&lt;div&gt;-&lt;/div&gt;&lt;div&gt;--&lt;/div&gt;&lt;div&gt;-&lt;/div&gt;&lt;div&gt;-&lt;/div&gt;&lt;div&gt;-&lt;/div&gt;&lt;div&gt;-&lt;/div&gt;&lt;div&gt;-&lt;br&gt;&lt;/div&gt;" style="text;html=1;align=center;verticalAlign=middle;whiteSpace=wrap;rounded=0;" vertex="1" parent="1">
          <mxGeometry x="720" y="560" width="60" height="30" as="geometry" />
        </mxCell>
        <mxCell id="AQar7df0eeI1V_TojDgb-9" value="n " style="text;html=1;align=center;verticalAlign=middle;whiteSpace=wrap;rounded=0;" vertex="1" parent="1">
          <mxGeometry x="700" y="350" width="60" height="30" as="geometry" />
        </mxCell>
        <mxCell id="AQar7df0eeI1V_TojDgb-10" value="&lt;div&gt;-&lt;/div&gt;&lt;div&gt;-&lt;/div&gt;&lt;div&gt;-&lt;/div&gt;&lt;div&gt;-&lt;/div&gt;&lt;div&gt;-&lt;/div&gt;&lt;div&gt;-&lt;/div&gt;&lt;div&gt;-&lt;/div&gt;&lt;div&gt;-&lt;/div&gt;&lt;div&gt;-&lt;/div&gt;&lt;div&gt;--&lt;/div&gt;&lt;div&gt;-&lt;/div&gt;&lt;div&gt;-&lt;/div&gt;&lt;div&gt;-&lt;/div&gt;&lt;div&gt;-&lt;/div&gt;&lt;div&gt;--&lt;/div&gt;&lt;div&gt;-&lt;/div&gt;&lt;div&gt;-&lt;/div&gt;&lt;div&gt;-&lt;/div&gt;&lt;div&gt;--&lt;/div&gt;&lt;div&gt;-&lt;/div&gt;&lt;div&gt;-&lt;/div&gt;&lt;div&gt;-&lt;/div&gt;&lt;div&gt;-&lt;/div&gt;&lt;div&gt;-&lt;br&gt;&lt;/div&gt;" style="text;html=1;align=center;verticalAlign=middle;whiteSpace=wrap;rounded=0;" vertex="1" parent="1">
          <mxGeometry x="720" y="110" width="60" height="30" as="geometry" />
        </mxCell>
        <mxCell id="AQar7df0eeI1V_TojDgb-11" value="m" style="text;html=1;align=center;verticalAlign=middle;whiteSpace=wrap;rounded=0;" vertex="1" parent="1">
          <mxGeometry x="720" y="-90" width="60" height="30" as="geometry" />
        </mxCell>
        <mxCell id="AQar7df0eeI1V_TojDgb-12" value="n+m" style="text;html=1;align=center;verticalAlign=middle;resizable=0;points=[];autosize=1;strokeColor=none;fillColor=none;" vertex="1" parent="1">
          <mxGeometry x="715" y="788" width="50" height="30" as="geometry" />
        </mxCell>
        <mxCell id="AQar7df0eeI1V_TojDgb-13" value="1000" style="text;html=1;align=center;verticalAlign=middle;resizable=0;points=[];autosize=1;strokeColor=none;fillColor=none;" vertex="1" parent="1">
          <mxGeometry x="115" y="288" width="50" height="30" as="geometry" />
        </mxCell>
        <mxCell id="AQar7df0eeI1V_TojDgb-14" value="&lt;div&gt;1000&lt;/div&gt;" style="text;html=1;align=center;verticalAlign=middle;resizable=0;points=[];autosize=1;strokeColor=none;fillColor=none;" vertex="1" parent="1">
          <mxGeometry x="500" y="250" width="50" height="30" as="geometry" />
        </mxCell>
      </root>
    </mxGraphModel>
  </diagram>
</mxfile>
